<?xml version="1.0" encoding="utf-8" standalone="no"?>
<!DOCTYPE svg PUBLIC "-//W3C//DTD SVG 1.1//EN"
  "http://www.w3.org/Graphics/SVG/1.1/DTD/svg11.dtd">
<svg xmlns:xlink="http://www.w3.org/1999/xlink" width="864pt" height="360pt" viewBox="0 0 864 360" xmlns="http://www.w3.org/2000/svg" version="1.1">
 <metadata>
  <rdf:RDF xmlns:dc="http://purl.org/dc/elements/1.1/" xmlns:cc="http://creativecommons.org/ns#" xmlns:rdf="http://www.w3.org/1999/02/22-rdf-syntax-ns#">
   <cc:Work>
    <dc:type rdf:resource="http://purl.org/dc/dcmitype/StillImage"/>
    <dc:date>2026-07-01T23:57:04.654849</dc:date>
    <dc:format>image/svg+xml</dc:format>
    <dc:creator>
     <cc:Agent>
      <dc:title>Matplotlib v3.5.1, https://matplotlib.org/</dc:title>
     </cc:Agent>
    </dc:creator>
   </cc:Work>
  </rdf:RDF>
 </metadata>
 <defs>
  <style type="text/css">*{stroke-linejoin: round; stroke-linecap: butt}</style>
 </defs>
 <g id="figure_1">
  <g id="patch_1">
   <path d="M 0 360
L 864 360
L 864 0
L 0 0
z
" style="fill: #ffffff"/>
  </g>
  <g id="axes_1">
   <g id="patch_2">
    <path d="M 74.1 303.54
L 413.325 303.54
L 413.325 36.24
L 74.1 36.24
z
" style="fill: #ffffff"/>
   </g>
   <g id="patch_3">
    <path d="M 74.1 303.54
L 91.06125 303.54
L 91.06125 229.604352
L 74.1 229.604352
z
" clip-path="url(#p2a84d08838)" style="fill: #595959; stroke: #ffffff; stroke-linejoin: miter"/>
   </g>
   <g id="patch_4">
    <path d="M 91.06125 303.54
L 108.0225 303.54
L 108.0225 48.968571
L 91.06125 48.968571
z
" clip-path="url(#p2a84d08838)" style="fill: #595959; stroke: #ffffff; stroke-linejoin: miter"/>
   </g>
   <g id="patch_5">
    <path d="M 108.0225 303.54
L 124.98375 303.54
L 124.98375 92.726404
L 108.0225 92.726404
z
" clip-path="url(#p2a84d08838)" style="fill: #595959; stroke: #ffffff; stroke-linejoin: miter"/>
   </g>
   <g id="patch_6">
    <path d="M 124.98375 303.54
L 141.945 303.54
L 141.945 172.91317
L 124.98375 172.91317
z
" clip-path="url(#p2a84d08838)" style="fill: #595959; stroke: #ffffff; stroke-linejoin: miter"/>
   </g>
   <g id="patch_7">
    <path d="M 141.945 303.54
L 158.90625 303.54
L 158.90625 226.371015
L 141.945 226.371015
z
" clip-path="url(#p2a84d08838)" style="fill: #595959; stroke: #ffffff; stroke-linejoin: miter"/>
   </g>
   <g id="patch_8">
    <path d="M 158.90625 303.54
L 175.8675 303.54
L 175.8675 257.411054
L 158.90625 257.411054
z
" clip-path="url(#p2a84d08838)" style="fill: #595959; stroke: #ffffff; stroke-linejoin: miter"/>
   </g>
   <g id="patch_9">
    <path d="M 175.8675 303.54
L 192.82875 303.54
L 192.82875 276.379966
L 175.8675 276.379966
z
" clip-path="url(#p2a84d08838)" style="fill: #595959; stroke: #ffffff; stroke-linejoin: miter"/>
   </g>
   <g id="patch_10">
    <path d="M 192.82875 303.54
L 209.79 303.54
L 209.79 289.959983
L 192.82875 289.959983
z
" clip-path="url(#p2a84d08838)" style="fill: #595959; stroke: #ffffff; stroke-linejoin: miter"/>
   </g>
   <g id="patch_11">
    <path d="M 209.79 303.54
L 226.75125 303.54
L 226.75125 291.68443
L 209.79 291.68443
z
" clip-path="url(#p2a84d08838)" style="fill: #595959; stroke: #ffffff; stroke-linejoin: miter"/>
   </g>
   <g id="patch_12">
    <path d="M 226.75125 303.54
L 243.7125 303.54
L 243.7125 297.288881
L 226.75125 297.288881
z
" clip-path="url(#p2a84d08838)" style="fill: #595959; stroke: #ffffff; stroke-linejoin: miter"/>
   </g>
   <g id="patch_13">
    <path d="M 243.7125 303.54
L 260.67375 303.54
L 260.67375 298.582216
L 243.7125 298.582216
z
" clip-path="url(#p2a84d08838)" style="fill: #595959; stroke: #ffffff; stroke-linejoin: miter"/>
   </g>
   <g id="patch_14">
    <path d="M 260.67375 303.54
L 277.635 303.54
L 277.635 298.36666
L 260.67375 298.36666
z
" clip-path="url(#p2a84d08838)" style="fill: #595959; stroke: #ffffff; stroke-linejoin: miter"/>
   </g>
   <g id="patch_15">
    <path d="M 277.635 303.54
L 294.59625 303.54
L 294.59625 301.168886
L 277.635 301.168886
z
" clip-path="url(#p2a84d08838)" style="fill: #595959; stroke: #ffffff; stroke-linejoin: miter"/>
   </g>
   <g id="patch_16">
    <path d="M 294.59625 303.54
L 311.5575 303.54
L 311.5575 301.384442
L 294.59625 301.384442
z
" clip-path="url(#p2a84d08838)" style="fill: #595959; stroke: #ffffff; stroke-linejoin: miter"/>
   </g>
   <g id="patch_17">
    <path d="M 311.5575 303.54
L 328.51875 303.54
L 328.51875 300.306663
L 311.5575 300.306663
z
" clip-path="url(#p2a84d08838)" style="fill: #595959; stroke: #ffffff; stroke-linejoin: miter"/>
   </g>
   <g id="patch_18">
    <path d="M 328.51875 303.54
L 345.48 303.54
L 345.48 300.95333
L 328.51875 300.95333
z
" clip-path="url(#p2a84d08838)" style="fill: #595959; stroke: #ffffff; stroke-linejoin: miter"/>
   </g>
   <g id="patch_19">
    <path d="M 345.48 303.54
L 362.44125 303.54
L 362.44125 302.462221
L 345.48 302.462221
z
" clip-path="url(#p2a84d08838)" style="fill: #595959; stroke: #ffffff; stroke-linejoin: miter"/>
   </g>
   <g id="patch_20">
    <path d="M 362.44125 303.54
L 379.4025 303.54
L 379.4025 303.324444
L 362.44125 303.324444
z
" clip-path="url(#p2a84d08838)" style="fill: #595959; stroke: #ffffff; stroke-linejoin: miter"/>
   </g>
   <g id="patch_21">
    <path d="M 379.4025 303.54
L 396.36375 303.54
L 396.36375 301.815553
L 379.4025 301.815553
z
" clip-path="url(#p2a84d08838)" style="fill: #595959; stroke: #ffffff; stroke-linejoin: miter"/>
   </g>
   <g id="patch_22">
    <path d="M 396.36375 303.54
L 413.325 303.54
L 413.325 302.893333
L 396.36375 302.893333
z
" clip-path="url(#p2a84d08838)" style="fill: #595959; stroke: #ffffff; stroke-linejoin: miter"/>
   </g>
   <g id="matplotlib.axis_1">
    <g id="xtick_1">
     <g id="line2d_1">
      <path d="M 74.1 303.54
L 74.1 36.24
" clip-path="url(#p2a84d08838)" style="fill: none; stroke: #b0b0b0; stroke-opacity: 0.25; stroke-width: 0.8; stroke-linecap: square"/>
     </g>
     <g id="line2d_2"/>
     <g id="text_1">
      <text style="font: 16px 'Times New Roman'; text-anchor: middle" x="74.1" y="318.15" transform="rotate(-0, 74.1, 318.15)">0.0</text>
     </g>
    </g>
    <g id="xtick_2">
     <g id="line2d_3">
      <path d="M 141.945 303.54
L 141.945 36.24
" clip-path="url(#p2a84d08838)" style="fill: none; stroke: #b0b0b0; stroke-opacity: 0.25; stroke-width: 0.8; stroke-linecap: square"/>
     </g>
     <g id="line2d_4"/>
     <g id="text_2">
      <text style="font: 16px 'Times New Roman'; text-anchor: middle" x="141.945" y="318.15" transform="rotate(-0, 141.945, 318.15)">0.5</text>
     </g>
    </g>
    <g id="xtick_3">
     <g id="line2d_5">
      <path d="M 209.79 303.54
L 209.79 36.24
" clip-path="url(#p2a84d08838)" style="fill: none; stroke: #b0b0b0; stroke-opacity: 0.25; stroke-width: 0.8; stroke-linecap: square"/>
     </g>
     <g id="line2d_6"/>
     <g id="text_3">
      <text style="font: 16px 'Times New Roman'; text-anchor: middle" x="209.79" y="318.15" transform="rotate(-0, 209.79, 318.15)">1.0</text>
     </g>
    </g>
    <g id="xtick_4">
     <g id="line2d_7">
      <path d="M 277.635 303.54
L 277.635 36.24
" clip-path="url(#p2a84d08838)" style="fill: none; stroke: #b0b0b0; stroke-opacity: 0.25; stroke-width: 0.8; stroke-linecap: square"/>
     </g>
     <g id="line2d_8"/>
     <g id="text_4">
      <text style="font: 16px 'Times New Roman'; text-anchor: middle" x="277.635" y="318.15" transform="rotate(-0, 277.635, 318.15)">1.5</text>
     </g>
    </g>
    <g id="xtick_5">
     <g id="line2d_9">
      <path d="M 345.48 303.54
L 345.48 36.24
" clip-path="url(#p2a84d08838)" style="fill: none; stroke: #b0b0b0; stroke-opacity: 0.25; stroke-width: 0.8; stroke-linecap: square"/>
     </g>
     <g id="line2d_10"/>
     <g id="text_5">
      <text style="font: 16px 'Times New Roman'; text-anchor: middle" x="345.48" y="318.15" transform="rotate(-0, 345.48, 318.15)">2.0</text>
     </g>
    </g>
    <g id="xtick_6">
     <g id="line2d_11">
      <path d="M 413.325 303.54
L 413.325 36.24
" clip-path="url(#p2a84d08838)" style="fill: none; stroke: #b0b0b0; stroke-opacity: 0.25; stroke-width: 0.8; stroke-linecap: square"/>
     </g>
     <g id="line2d_12"/>
     <g id="text_6">
      <text style="font: 16px 'Times New Roman'; text-anchor: middle" x="413.325" y="318.15" transform="rotate(-0, 413.325, 318.15)">2.5</text>
     </g>
    </g>
    <g id="text_7">
     <text style="font: 18px 'Times New Roman'; text-anchor: middle" x="243.7125" y="338.07125" transform="rotate(-0, 243.7125, 338.07125)">Force volume radius [N]</text>
    </g>
   </g>
   <g id="matplotlib.axis_2">
    <g id="ytick_1">
     <g id="line2d_13">
      <path d="M 74.1 303.54
L 413.325 303.54
" clip-path="url(#p2a84d08838)" style="fill: none; stroke: #b0b0b0; stroke-opacity: 0.25; stroke-width: 0.8; stroke-linecap: square"/>
     </g>
     <g id="line2d_14"/>
    </g>
    <g id="ytick_2">
     <g id="line2d_15">
      <path d="M 74.1 260.428835
L 413.325 260.428835
" clip-path="url(#p2a84d08838)" style="fill: none; stroke: #b0b0b0; stroke-opacity: 0.25; stroke-width: 0.8; stroke-linecap: square"/>
     </g>
     <g id="line2d_16"/>
     <g id="text_8">
      <text style="font: 16px 'Times New Roman'; text-anchor: end" x="70.6" y="265.983835" transform="rotate(-0, 70.6, 265.983835)">200</text>
     </g>
    </g>
    <g id="ytick_3">
     <g id="line2d_17">
      <path d="M 74.1 217.31767
L 413.325 217.31767
" clip-path="url(#p2a84d08838)" style="fill: none; stroke: #b0b0b0; stroke-opacity: 0.25; stroke-width: 0.8; stroke-linecap: square"/>
     </g>
     <g id="line2d_18"/>
     <g id="text_9">
      <text style="font: 16px 'Times New Roman'; text-anchor: end" x="70.6" y="222.87267" transform="rotate(-0, 70.6, 222.87267)">400</text>
     </g>
    </g>
    <g id="ytick_4">
     <g id="line2d_19">
      <path d="M 74.1 174.206505
L 413.325 174.206505
" clip-path="url(#p2a84d08838)" style="fill: none; stroke: #b0b0b0; stroke-opacity: 0.25; stroke-width: 0.8; stroke-linecap: square"/>
     </g>
     <g id="line2d_20"/>
     <g id="text_10">
      <text style="font: 16px 'Times New Roman'; text-anchor: end" x="70.6" y="179.761505" transform="rotate(-0, 70.6, 179.761505)">600</text>
     </g>
    </g>
    <g id="ytick_5">
     <g id="line2d_21">
      <path d="M 74.1 131.095341
L 413.325 131.095341
" clip-path="url(#p2a84d08838)" style="fill: none; stroke: #b0b0b0; stroke-opacity: 0.25; stroke-width: 0.8; stroke-linecap: square"/>
     </g>
     <g id="line2d_22"/>
     <g id="text_11">
      <text style="font: 16px 'Times New Roman'; text-anchor: end" x="70.6" y="136.650341" transform="rotate(-0, 70.6, 136.650341)">800</text>
     </g>
    </g>
    <g id="ytick_6">
     <g id="line2d_23">
      <path d="M 74.1 87.984176
L 413.325 87.984176
" clip-path="url(#p2a84d08838)" style="fill: none; stroke: #b0b0b0; stroke-opacity: 0.25; stroke-width: 0.8; stroke-linecap: square"/>
     </g>
     <g id="line2d_24"/>
     <g id="text_12">
      <text style="font: 16px 'Times New Roman'; text-anchor: end" x="70.6" y="93.539176" transform="rotate(-0, 70.6, 93.539176)">1000</text>
     </g>
    </g>
    <g id="ytick_7">
     <g id="line2d_25">
      <path d="M 74.1 44.873011
L 413.325 44.873011
" clip-path="url(#p2a84d08838)" style="fill: none; stroke: #b0b0b0; stroke-opacity: 0.25; stroke-width: 0.8; stroke-linecap: square"/>
     </g>
     <g id="line2d_26"/>
     <g id="text_13">
      <text style="font: 16px 'Times New Roman'; text-anchor: end" x="70.6" y="50.428011" transform="rotate(-0, 70.6, 50.428011)">1200</text>
     </g>
    </g>
    <g id="text_14">
     <text style="font: 18px 'Times New Roman'; text-anchor: middle" x="30.749687" y="169.89" transform="rotate(-90, 30.749687, 169.89)">Samples</text>
    </g>
   </g>
   <g id="line2d_27">
    <path d="M 88.888917 303.54
L 88.888917 36.24
" clip-path="url(#p2a84d08838)" style="fill: none; stroke: #d62728; stroke-width: 3; stroke-linecap: square"/>
   </g>
   <g id="line2d_28">
    <path d="M 107.916686 303.54
L 107.916686 36.24
" clip-path="url(#p2a84d08838)" style="fill: none; stroke: #2ca02c; stroke-width: 3; stroke-linecap: square"/>
   </g>
   <g id="patch_23">
    <path d="M 74.1 303.54
L 74.1 36.24
" style="fill: none; stroke: #000000; stroke-width: 0.8; stroke-linejoin: miter; stroke-linecap: square"/>
   </g>
   <g id="patch_24">
    <path d="M 413.325 303.54
L 413.325 36.24
" style="fill: none; stroke: #000000; stroke-width: 0.8; stroke-linejoin: miter; stroke-linecap: square"/>
   </g>
   <g id="patch_25">
    <path d="M 74.1 303.54
L 413.325 303.54
" style="fill: none; stroke: #000000; stroke-width: 0.8; stroke-linejoin: miter; stroke-linecap: square"/>
   </g>
   <g id="patch_26">
    <path d="M 74.1 36.24
L 413.325 36.24
" style="fill: none; stroke: #000000; stroke-width: 0.8; stroke-linejoin: miter; stroke-linecap: square"/>
   </g>
   <g id="text_15">
    <text style="font: 18px 'Times New Roman'; text-anchor: middle" x="243.7125" y="30.24" transform="rotate(-0, 243.7125, 30.24)">Force Volume</text>
   </g>
   <g id="legend_1">
    <g id="patch_27">
     <path d="M 208.865938 87.055625
L 403.525 87.055625
Q 406.325 87.055625 406.325 84.255625
L 406.325 46.04
Q 406.325 43.24 403.525 43.24
L 208.865938 43.24
Q 206.065937 43.24 206.065937 46.04
L 206.065937 84.255625
Q 206.065937 87.055625 208.865938 87.055625
z
" style="fill: #ffffff; opacity: 0.8; stroke: #cccccc; stroke-linejoin: miter"/>
    </g>
    <g id="line2d_29">
     <path d="M 211.665937 53.74
L 225.665937 53.74
L 239.665937 53.74
" style="fill: none; stroke: #d62728; stroke-width: 3; stroke-linecap: square"/>
    </g>
    <g id="text_16">
     <text style="font: 14px 'Times New Roman'; text-anchor: start" x="250.865937" y="58.64" transform="rotate(-0, 250.865937, 58.64)">Critical threshold = 0.109</text>
    </g>
    <g id="line2d_30">
     <path d="M 211.665937 73.534687
L 225.665937 73.534687
L 239.665937 73.534687
" style="fill: none; stroke: #2ca02c; stroke-width: 3; stroke-linecap: square"/>
    </g>
    <g id="text_17">
     <text style="font: 14px 'Times New Roman'; text-anchor: start" x="250.865937" y="78.434687" transform="rotate(-0, 250.865937, 78.434687)">Warning threshold = 0.249</text>
    </g>
   </g>
  </g>
  <g id="axes_2">
   <g id="patch_28">
    <path d="M 497.46 303.54
L 836.685 303.54
L 836.685 36.24
L 497.46 36.24
z
" style="fill: #ffffff"/>
   </g>
   <g id="patch_29">
    <path d="M 497.46 303.54
L 514.42125 303.54
L 514.42125 48.968571
L 497.46 48.968571
z
" clip-path="url(#pb661270742)" style="fill: #595959; stroke: #ffffff; stroke-linejoin: miter"/>
   </g>
   <g id="patch_30">
    <path d="M 514.42125 303.54
L 531.3825 303.54
L 531.3825 139.742049
L 514.42125 139.742049
z
" clip-path="url(#pb661270742)" style="fill: #595959; stroke: #ffffff; stroke-linejoin: miter"/>
   </g>
   <g id="patch_31">
    <path d="M 531.3825 303.54
L 548.34375 303.54
L 548.34375 174.479385
L 531.3825 174.479385
z
" clip-path="url(#pb661270742)" style="fill: #595959; stroke: #ffffff; stroke-linejoin: miter"/>
   </g>
   <g id="patch_32">
    <path d="M 548.34375 303.54
L 565.305 303.54
L 565.305 195.77819
L 548.34375 195.77819
z
" clip-path="url(#pb661270742)" style="fill: #595959; stroke: #ffffff; stroke-linejoin: miter"/>
   </g>
   <g id="patch_33">
    <path d="M 565.305 303.54
L 582.26625 303.54
L 582.26625 219.35901
L 565.305 219.35901
z
" clip-path="url(#pb661270742)" style="fill: #595959; stroke: #ffffff; stroke-linejoin: miter"/>
   </g>
   <g id="patch_34">
    <path d="M 582.26625 303.54
L 599.2275 303.54
L 599.2275 242.179158
L 582.26625 242.179158
z
" clip-path="url(#pb661270742)" style="fill: #595959; stroke: #ffffff; stroke-linejoin: miter"/>
   </g>
   <g id="patch_35">
    <path d="M 599.2275 303.54
L 616.18875 303.54
L 616.18875 256.378361
L 599.2275 256.378361
z
" clip-path="url(#pb661270742)" style="fill: #595959; stroke: #ffffff; stroke-linejoin: miter"/>
   </g>
   <g id="patch_36">
    <path d="M 616.18875 303.54
L 633.15 303.54
L 633.15 260.94239
L 616.18875 260.94239
z
" clip-path="url(#pb661270742)" style="fill: #595959; stroke: #ffffff; stroke-linejoin: miter"/>
   </g>
   <g id="patch_37">
    <path d="M 633.15 303.54
L 650.11125 303.54
L 650.11125 268.041992
L 633.15 268.041992
z
" clip-path="url(#pb661270742)" style="fill: #595959; stroke: #ffffff; stroke-linejoin: miter"/>
   </g>
   <g id="patch_38">
    <path d="M 650.11125 303.54
L 667.0725 303.54
L 667.0725 274.127365
L 650.11125 274.127365
z
" clip-path="url(#pb661270742)" style="fill: #595959; stroke: #ffffff; stroke-linejoin: miter"/>
   </g>
   <g id="patch_39">
    <path d="M 667.0725 303.54
L 684.03375 303.54
L 684.03375 276.40938
L 667.0725 276.40938
z
" clip-path="url(#pb661270742)" style="fill: #595959; stroke: #ffffff; stroke-linejoin: miter"/>
   </g>
   <g id="patch_40">
    <path d="M 684.03375 303.54
L 700.995 303.54
L 700.995 283.762538
L 684.03375 283.762538
z
" clip-path="url(#pb661270742)" style="fill: #595959; stroke: #ffffff; stroke-linejoin: miter"/>
   </g>
   <g id="patch_41">
    <path d="M 700.995 303.54
L 717.95625 303.54
L 717.95625 291.369254
L 700.995 291.369254
z
" clip-path="url(#pb661270742)" style="fill: #595959; stroke: #ffffff; stroke-linejoin: miter"/>
   </g>
   <g id="patch_42">
    <path d="M 717.95625 303.54
L 734.9175 303.54
L 734.9175 294.411941
L 717.95625 294.411941
z
" clip-path="url(#pb661270742)" style="fill: #595959; stroke: #ffffff; stroke-linejoin: miter"/>
   </g>
   <g id="patch_43">
    <path d="M 734.9175 303.54
L 751.87875 303.54
L 751.87875 295.42617
L 734.9175 295.42617
z
" clip-path="url(#pb661270742)" style="fill: #595959; stroke: #ffffff; stroke-linejoin: miter"/>
   </g>
   <g id="patch_44">
    <path d="M 751.87875 303.54
L 768.84 303.54
L 768.84 300.497314
L 751.87875 300.497314
z
" clip-path="url(#pb661270742)" style="fill: #595959; stroke: #ffffff; stroke-linejoin: miter"/>
   </g>
   <g id="patch_45">
    <path d="M 768.84 303.54
L 785.80125 303.54
L 785.80125 301.004428
L 768.84 301.004428
z
" clip-path="url(#pb661270742)" style="fill: #595959; stroke: #ffffff; stroke-linejoin: miter"/>
   </g>
   <g id="patch_46">
    <path d="M 785.80125 303.54
L 802.7625 303.54
L 802.7625 302.525771
L 785.80125 302.525771
z
" clip-path="url(#pb661270742)" style="fill: #595959; stroke: #ffffff; stroke-linejoin: miter"/>
   </g>
   <g id="patch_47">
    <path d="M 802.7625 303.54
L 819.72375 303.54
L 819.72375 303.286443
L 802.7625 303.286443
z
" clip-path="url(#pb661270742)" style="fill: #595959; stroke: #ffffff; stroke-linejoin: miter"/>
   </g>
   <g id="patch_48">
    <path d="M 819.72375 303.54
L 836.685 303.54
L 836.685 303.54
L 819.72375 303.54
z
" clip-path="url(#pb661270742)" style="fill: #595959; stroke: #ffffff; stroke-linejoin: miter"/>
   </g>
   <g id="matplotlib.axis_3">
    <g id="xtick_7">
     <g id="line2d_31">
      <path d="M 497.46 303.54
L 497.46 36.24
" clip-path="url(#pb661270742)" style="fill: none; stroke: #b0b0b0; stroke-opacity: 0.25; stroke-width: 0.8; stroke-linecap: square"/>
     </g>
     <g id="line2d_32"/>
     <g id="text_18">
      <text style="font: 16px 'Times New Roman'; text-anchor: middle" x="497.46" y="318.15" transform="rotate(-0, 497.46, 318.15)">0.0</text>
     </g>
    </g>
    <g id="xtick_8">
     <g id="line2d_33">
      <path d="M 565.305 303.54
L 565.305 36.24
" clip-path="url(#pb661270742)" style="fill: none; stroke: #b0b0b0; stroke-opacity: 0.25; stroke-width: 0.8; stroke-linecap: square"/>
     </g>
     <g id="line2d_34"/>
     <g id="text_19">
      <text style="font: 16px 'Times New Roman'; text-anchor: middle" x="565.305" y="318.15" transform="rotate(-0, 565.305, 318.15)">0.5</text>
     </g>
    </g>
    <g id="xtick_9">
     <g id="line2d_35">
      <path d="M 633.15 303.54
L 633.15 36.24
" clip-path="url(#pb661270742)" style="fill: none; stroke: #b0b0b0; stroke-opacity: 0.25; stroke-width: 0.8; stroke-linecap: square"/>
     </g>
     <g id="line2d_36"/>
     <g id="text_20">
      <text style="font: 16px 'Times New Roman'; text-anchor: middle" x="633.15" y="318.15" transform="rotate(-0, 633.15, 318.15)">1.0</text>
     </g>
    </g>
    <g id="xtick_10">
     <g id="line2d_37">
      <path d="M 700.995 303.54
L 700.995 36.24
" clip-path="url(#pb661270742)" style="fill: none; stroke: #b0b0b0; stroke-opacity: 0.25; stroke-width: 0.8; stroke-linecap: square"/>
     </g>
     <g id="line2d_38"/>
     <g id="text_21">
      <text style="font: 16px 'Times New Roman'; text-anchor: middle" x="700.995" y="318.15" transform="rotate(-0, 700.995, 318.15)">1.5</text>
     </g>
    </g>
    <g id="xtick_11">
     <g id="line2d_39">
      <path d="M 768.84 303.54
L 768.84 36.24
" clip-path="url(#pb661270742)" style="fill: none; stroke: #b0b0b0; stroke-opacity: 0.25; stroke-width: 0.8; stroke-linecap: square"/>
     </g>
     <g id="line2d_40"/>
     <g id="text_22">
      <text style="font: 16px 'Times New Roman'; text-anchor: middle" x="768.84" y="318.15" transform="rotate(-0, 768.84, 318.15)">2.0</text>
     </g>
    </g>
    <g id="xtick_12">
     <g id="line2d_41">
      <path d="M 836.685 303.54
L 836.685 36.24
" clip-path="url(#pb661270742)" style="fill: none; stroke: #b0b0b0; stroke-opacity: 0.25; stroke-width: 0.8; stroke-linecap: square"/>
     </g>
     <g id="line2d_42"/>
     <g id="text_23">
      <text style="font: 16px 'Times New Roman'; text-anchor: middle" x="836.685" y="318.15" transform="rotate(-0, 836.685, 318.15)">2.5</text>
     </g>
    </g>
    <g id="text_24">
     <text style="font: 18px 'Times New Roman'; text-anchor: middle" x="667.0725" y="338.07125" transform="rotate(-0, 667.0725, 338.07125)">Torque volume radius [N m]</text>
    </g>
   </g>
   <g id="matplotlib.axis_4">
    <g id="ytick_8">
     <g id="line2d_43">
      <path d="M 497.46 303.54
L 836.685 303.54
" clip-path="url(#pb661270742)" style="fill: none; stroke: #b0b0b0; stroke-opacity: 0.25; stroke-width: 0.8; stroke-linecap: square"/>
     </g>
     <g id="line2d_44"/>
    </g>
    <g id="ytick_9">
     <g id="line2d_45">
      <path d="M 497.46 252.82856
L 836.685 252.82856
" clip-path="url(#pb661270742)" style="fill: none; stroke: #b0b0b0; stroke-opacity: 0.25; stroke-width: 0.8; stroke-linecap: square"/>
     </g>
     <g id="line2d_46"/>
     <g id="text_25">
      <text style="font: 16px 'Times New Roman'; text-anchor: end" x="493.96" y="258.38356" transform="rotate(-0, 493.96, 258.38356)">200</text>
     </g>
    </g>
    <g id="ytick_10">
     <g id="line2d_47">
      <path d="M 497.46 202.11712
L 836.685 202.11712
" clip-path="url(#pb661270742)" style="fill: none; stroke: #b0b0b0; stroke-opacity: 0.25; stroke-width: 0.8; stroke-linecap: square"/>
     </g>
     <g id="line2d_48"/>
     <g id="text_26">
      <text style="font: 16px 'Times New Roman'; text-anchor: end" x="493.96" y="207.67212" transform="rotate(-0, 493.96, 207.67212)">400</text>
     </g>
    </g>
    <g id="ytick_11">
     <g id="line2d_49">
      <path d="M 497.46 151.40568
L 836.685 151.40568
" clip-path="url(#pb661270742)" style="fill: none; stroke: #b0b0b0; stroke-opacity: 0.25; stroke-width: 0.8; stroke-linecap: square"/>
     </g>
     <g id="line2d_50"/>
     <g id="text_27">
      <text style="font: 16px 'Times New Roman'; text-anchor: end" x="493.96" y="156.96068" transform="rotate(-0, 493.96, 156.96068)">600</text>
     </g>
    </g>
    <g id="ytick_12">
     <g id="line2d_51">
      <path d="M 497.46 100.69424
L 836.685 100.69424
" clip-path="url(#pb661270742)" style="fill: none; stroke: #b0b0b0; stroke-opacity: 0.25; stroke-width: 0.8; stroke-linecap: square"/>
     </g>
     <g id="line2d_52"/>
     <g id="text_28">
      <text style="font: 16px 'Times New Roman'; text-anchor: end" x="493.96" y="106.24924" transform="rotate(-0, 493.96, 106.24924)">800</text>
     </g>
    </g>
    <g id="ytick_13">
     <g id="line2d_53">
      <path d="M 497.46 49.9828
L 836.685 49.9828
" clip-path="url(#pb661270742)" style="fill: none; stroke: #b0b0b0; stroke-opacity: 0.25; stroke-width: 0.8; stroke-linecap: square"/>
     </g>
     <g id="line2d_54"/>
     <g id="text_29">
      <text style="font: 16px 'Times New Roman'; text-anchor: end" x="493.96" y="55.5378" transform="rotate(-0, 493.96, 55.5378)">1000</text>
     </g>
    </g>
    <g id="text_30">
     <text style="font: 18px 'Times New Roman'; text-anchor: middle" x="454.109687" y="169.89" transform="rotate(-90, 454.109687, 169.89)">Samples</text>
    </g>
   </g>
   <g id="line2d_55">
    <path d="M 499.549626 303.54
L 499.549626 36.24
" clip-path="url(#pb661270742)" style="fill: none; stroke: #d62728; stroke-width: 3; stroke-linecap: square"/>
   </g>
   <g id="line2d_56">
    <path d="M 535.203366 303.54
L 535.203366 36.24
" clip-path="url(#pb661270742)" style="fill: none; stroke: #2ca02c; stroke-width: 3; stroke-linecap: square"/>
   </g>
   <g id="patch_49">
    <path d="M 497.46 303.54
L 497.46 36.24
" style="fill: none; stroke: #000000; stroke-width: 0.8; stroke-linejoin: miter; stroke-linecap: square"/>
   </g>
   <g id="patch_50">
    <path d="M 836.685 303.54
L 836.685 36.24
" style="fill: none; stroke: #000000; stroke-width: 0.8; stroke-linejoin: miter; stroke-linecap: square"/>
   </g>
   <g id="patch_51">
    <path d="M 497.46 303.54
L 836.685 303.54
" style="fill: none; stroke: #000000; stroke-width: 0.8; stroke-linejoin: miter; stroke-linecap: square"/>
   </g>
   <g id="patch_52">
    <path d="M 497.46 36.24
L 836.685 36.24
" style="fill: none; stroke: #000000; stroke-width: 0.8; stroke-linejoin: miter; stroke-linecap: square"/>
   </g>
   <g id="text_31">
    <text style="font: 18px 'Times New Roman'; text-anchor: middle" x="667.0725" y="30.24" transform="rotate(-0, 667.0725, 30.24)">Torque Volume</text>
   </g>
   <g id="legend_2">
    <g id="patch_53">
     <path d="M 632.225937 87.055625
L 826.885 87.055625
Q 829.685 87.055625 829.685 84.255625
L 829.685 46.04
Q 829.685 43.24 826.885 43.24
L 632.225937 43.24
Q 629.425937 43.24 629.425937 46.04
L 629.425937 84.255625
Q 629.425937 87.055625 632.225937 87.055625
z
" style="fill: #ffffff; opacity: 0.8; stroke: #cccccc; stroke-linejoin: miter"/>
    </g>
    <g id="line2d_57">
     <path d="M 635.025937 53.74
L 649.025937 53.74
L 663.025937 53.74
" style="fill: none; stroke: #d62728; stroke-width: 3; stroke-linecap: square"/>
    </g>
    <g id="text_32">
     <text style="font: 14px 'Times New Roman'; text-anchor: start" x="674.225937" y="58.64" transform="rotate(-0, 674.225937, 58.64)">Critical threshold = 0.015</text>
    </g>
    <g id="line2d_58">
     <path d="M 635.025937 73.534687
L 649.025937 73.534687
L 663.025937 73.534687
" style="fill: none; stroke: #2ca02c; stroke-width: 3; stroke-linecap: square"/>
    </g>
    <g id="text_33">
     <text style="font: 14px 'Times New Roman'; text-anchor: start" x="674.225937" y="78.434687" transform="rotate(-0, 674.225937, 78.434687)">Warning threshold = 0.278</text>
    </g>
   </g>
  </g>
 </g>
 <defs>
  <clipPath id="p2a84d08838">
   <rect x="74.1" y="36.24" width="339.225" height="267.3"/>
  </clipPath>
  <clipPath id="pb661270742">
   <rect x="497.46" y="36.24" width="339.225" height="267.3"/>
  </clipPath>
 </defs>
</svg>
